<svg width="512" height="512" viewBox="0 0 512 512" fill="none" xmlns="http://www.w3.org/2000/svg">
<path d="M116.112 401.4C112.317 400.295 108.652 397.194 106.78 393.506L105 389.998V313.333C105 236.836 105.003 236.663 106.23 233.999C107.797 230.599 110.738 227.644 114.124 226.07C116.628 224.906 118.054 224.818 138.87 224.539C154.049 224.336 159.336 224.113 155.772 223.826C152.14 223.534 148.582 222.723 143.9 221.121C125.4 214.79 112.015 200.263 106.621 180.659C105.101 175.133 105.155 158.98 106.714 153.241C109.552 142.792 114.417 134.292 121.85 126.795C141.148 107.332 170.743 104.471 193.619 119.857C206.17 128.299 214.604 141.138 217.88 156.791C219.147 162.845 218.753 174.228 217.051 180.761C210.861 204.517 191.264 221.604 167.569 223.907C164.869 224.169 187.615 224.368 218.979 224.355C249.919 224.342 274.04 224.247 272.582 224.142C252.046 222.671 233.581 209.924 224.838 191.184C220.798 182.523 219.944 178.358 219.909 167.146C219.873 155.874 220.725 151.85 225.103 142.591C238.753 113.726 273.319 101.784 301.74 116.113C307.39 118.962 310.328 121.072 315.463 125.972C323.187 133.341 328.576 142.466 331.323 152.822C333.429 160.761 333.55 172.59 331.605 180.386C329.178 190.114 324.212 199.135 317.188 206.576C308.052 216.252 295.088 222.659 282.301 223.816C279.127 224.104 284.799 224.34 299.678 224.539L321.767 224.835L324.8 226.442C326.468 227.325 328.647 229.041 329.643 230.254C333.011 234.359 333.253 236.008 333.253 254.82V271.874H343.768H354.283L373.554 254.414C384.153 244.811 393.645 236.528 394.648 236.007C397.977 234.278 402.721 235.731 404.961 239.165C405.939 240.665 406 244.99 406 313.291C406 382.206 405.947 385.906 404.937 387.454C402.77 390.776 398.512 392.216 394.917 390.844C394.125 390.541 384.764 382.422 374.115 372.801L354.753 355.308L344.035 355.305L333.317 355.301L333.138 373.2C332.966 390.366 332.906 391.198 331.654 393.549C329.881 396.88 325.963 400.114 322.422 401.17C319.884 401.927 306.005 402.037 218.725 401.991C160.224 401.96 117.184 401.712 116.112 401.4ZM203.037 354.452L219.19 338.219L235.136 354.473C250.204 369.831 251.199 370.726 253.2 370.706C254.457 370.693 255.686 370.264 256.224 369.649C259.539 365.861 261.434 357.605 260.391 351.49C259.152 344.225 257.593 341.872 246.693 330.809L236.72 320.687L242.626 314.621C245.874 311.285 249.105 308.435 249.807 308.287C250.508 308.14 253.6 307.931 256.678 307.823C261.499 307.654 262.829 307.366 266.28 305.742C271.563 303.258 276.437 298.37 279.109 292.878C281.035 288.918 281.123 288.452 281.107 282.228C281.087 274.733 280.031 271.261 276.254 266.267C271.548 260.046 264.986 256.544 257.084 256.037C246.133 255.334 236.614 261.055 231.718 271.282C229.938 275.001 229.876 275.394 229.859 283.173L229.841 291.219L224.592 296.952L219.343 302.685L214.386 297.782C208.287 291.748 207.724 290.581 208.49 285.569C209.698 277.677 206.705 269.077 200.771 263.392C195.564 258.403 189.542 255.898 182.753 255.898C175.965 255.898 169.943 258.403 164.736 263.392C155.035 272.686 154.068 287.145 162.403 298.235C167.15 304.55 174.656 307.966 183.783 307.966H189.125L195.356 314.15L201.586 320.333L191.737 330.335C183.543 338.656 181.586 340.985 180.091 344.194C176.828 351.198 176.611 358.852 179.483 365.583C181.021 369.189 182.629 370.685 184.966 370.685C186.692 370.685 188.504 369.057 203.037 354.452ZM179.327 291.752C173.443 289.574 170.918 283.297 173.568 277.436C175.112 274.019 177.779 272.285 181.956 271.982C184.828 271.773 185.768 271.975 187.976 273.275C190.944 275.022 193.07 278.666 193.049 281.971C193.004 288.915 185.71 294.115 179.327 291.752ZM252.352 291.719C247.827 290.1 245.486 286.702 245.486 281.753C245.486 278.226 246.837 275.612 249.8 273.407C251.107 272.434 252.327 272.169 255.5 272.169C260.005 272.169 261.809 273.09 264.188 276.601C265.67 278.787 266.025 283.971 264.851 286.261C262.409 291.023 257.005 293.383 252.352 291.719ZM168.03 191.996C173.441 190.605 177.332 188.262 180.961 184.208C194.501 169.08 186.053 145.388 165.782 141.636C158.071 140.209 149.62 143.149 143.565 149.365C129.576 163.726 136.681 187.456 156.407 192.26C161.071 193.395 162.729 193.358 168.03 191.996ZM280.032 192.628C288.376 191.038 295.262 186.103 299.021 179.019C301.29 174.742 302.288 167.914 301.425 162.579C299.269 149.256 285.586 139.31 272.581 141.611C262.216 143.445 253.584 151.248 251.4 160.761C248.642 172.77 254.703 185.601 265.381 190.357C271.324 193.004 275.035 193.58 280.032 192.628Z" fill="#A51D2D"/>
</svg>
