<svg width="512" height="512" viewBox="0 0 512 512" fill="none" xmlns="http://www.w3.org/2000/svg">
<path d="M248.501 425.458C244.968 424.565 248.018 426.278 179.001 386.408C109.095 346.023 111.094 347.37 106.991 337.894L105 333.295V255.722V178.148L107.501 173.073C108.877 170.281 111.266 166.699 112.811 165.111C114.908 162.956 131.761 152.881 179.333 125.341C214.376 105.055 244.469 87.9125 246.207 87.2466C250.54 85.5862 260.102 85.5841 264.445 87.2425C267.524 88.4184 391.868 160.105 395.563 162.834C398.357 164.898 402.754 171.067 404.474 175.336L406 179.125L405.826 256.578L405.652 334.031L403.201 338.988C401.742 341.938 399.459 345.199 397.56 347.043C395.203 349.332 378.07 359.576 331.982 386.251C297.669 406.111 267.988 423.101 266.024 424.007C262.02 425.854 253.015 426.6 248.501 425.458ZM272.075 355.213C293.231 351.602 314.072 340.49 328.303 325.233C334.475 318.617 343.036 306.754 342.152 306.043C342.034 305.948 332.262 300.251 320.437 293.383C303.129 283.331 298.828 281.088 298.384 281.884C298.08 282.428 296.483 284.673 294.833 286.873C288.959 294.71 278.701 301.48 268.23 304.431C261.426 306.349 249.825 306.519 243.379 304.796C234.573 302.441 226.024 297.559 219.833 291.35C215.233 286.737 212.884 283.228 210.044 276.722C198.897 251.195 209.138 222.738 233.756 210.836C241.111 207.279 247.386 205.839 255.517 205.839C270.924 205.839 286.013 213.424 295.171 225.775C297.106 228.385 299.035 230.388 299.456 230.226C300.538 229.81 341.838 205.819 342.398 205.282C342.651 205.039 341.257 202.444 339.3 199.516C329.245 184.47 315.235 172.338 298.929 164.556C290.653 160.606 284.364 158.469 275.237 156.503C265.772 154.465 247.016 154.301 237.074 156.17C195.936 163.905 163.671 196.258 156.014 237.453C154.294 246.705 154.294 264.808 156.014 274.06C158.542 287.663 163.154 298.953 170.943 310.607C193.839 344.865 232.582 361.954 272.075 355.213ZM344.924 266.738V261.081H350.565H356.207V255.756V250.432H350.565H344.924V244.774V239.117H339.31H333.695L333.502 244.608L333.31 250.099L327.834 250.292L322.359 250.486V255.756V261.027L327.834 261.22L333.31 261.414L333.502 266.905L333.695 272.396H339.31H344.924V266.738ZM386.737 266.738V261.081H392.378H398.019V255.756V250.432H392.378H386.737V244.774V239.117H381.095H375.454V244.774V250.432H369.812H364.171V255.756V261.081H369.812H375.454V266.738V272.396H381.095H386.737V266.738Z" fill="#A51D2D"/>
</svg>
