<svg width="512" height="512" viewBox="0 0 512 512" fill="none" xmlns="http://www.w3.org/2000/svg">
<path d="M193.366 411.875C150.094 399.748 132.381 394.511 132.257 393.808C131.927 391.938 105 86.7261 105 84.863V83H255.993H406.986L407 84.5237C407.033 88.1627 379.714 394.215 379.322 394.603C378.652 395.265 257.155 429.054 255.637 429C254.902 428.974 226.88 421.267 193.366 411.875ZM295.984 352.832L334.959 342.085L336.781 321.402C337.783 310.026 341.648 266.741 345.369 225.211C349.091 183.682 352.137 149.018 352.138 148.18L352.141 146.657H255.993C164.881 146.657 159.844 146.719 159.828 147.842C159.819 148.493 160.329 156.724 160.962 166.132L162.111 183.237L236.136 183.062C309.77 182.887 310.161 182.894 310.154 184.241C310.143 186.61 307.443 220.707 307.252 220.898C307.151 220.998 275.391 221.445 236.673 221.89C197.956 222.335 166.19 222.768 166.083 222.852C165.976 222.936 166.745 231.196 167.792 241.207L169.696 259.41H236.882C281.22 259.41 304.068 259.64 304.069 260.087C304.072 261.254 298.47 311.544 298.315 311.739C298.234 311.84 288.67 314.486 277.061 317.617L255.953 323.311L234.9 317.632C223.321 314.508 213.769 311.863 213.673 311.753C213.577 311.644 212.998 305.612 212.387 298.349C211.776 291.086 211.103 284.001 210.892 282.604L210.508 280.064H190.878H171.248L171.608 281.927C171.806 282.951 173.108 296.905 174.501 312.937L177.033 342.085L216.344 353.015C237.965 359.027 255.959 363.863 256.332 363.762C256.704 363.661 274.548 358.743 295.984 352.832Z" fill="#A51D2D"/>
</svg>
