<svg width="512" height="512" viewBox="0 0 512 512" fill="none" xmlns="http://www.w3.org/2000/svg">
<path d="M193.443 409.1C158.969 398.169 132.979 389.581 131.664 388.686C130.417 387.836 128.938 386.004 128.379 384.614C127.642 382.781 124.29 342.846 116.181 239.302C110.031 160.771 105 95.1177 105 93.4069C105 89.676 106.958 86.4179 110.419 84.3883L112.787 83H256H399.213L401.581 84.3883C405.042 86.4179 407 89.676 407 93.4069C407 95.1177 401.969 160.771 395.819 239.302C387.71 342.846 384.358 382.781 383.621 384.614C383.062 386.004 381.584 387.836 380.336 388.686C377.064 390.914 259.455 428.04 255.795 428C254.016 427.981 230.698 420.913 193.443 409.1ZM297.168 353.281C319.03 346.368 337.129 340.513 337.389 340.271C337.786 339.9 346.736 229.942 346.736 225.439L346.735 223.919H277.33C239.156 223.919 207.924 223.791 207.924 223.634C207.924 223.478 207.01 215.242 205.892 205.332C204.775 195.422 203.861 186.426 203.861 185.34V183.366H276.991C317.212 183.366 350.122 183.29 350.124 183.198C350.126 183.105 350.734 175.425 351.475 166.132C352.217 156.839 352.825 148.399 352.826 147.376L352.829 145.518H256H159.17V147.211C159.17 150.966 168.012 261.283 168.358 261.842C168.571 262.187 197.73 262.443 236.71 262.443H304.69L304.362 265.653C303.966 269.534 301.368 306.016 301.368 307.697C301.368 308.686 297.653 309.89 279.288 314.848C258.026 320.588 257.092 320.779 254.065 319.985C252.336 319.531 242.314 316.848 231.793 314.022L212.664 308.884V294.112V279.34H190.947H169.23L169.623 282.888C169.839 284.84 170.947 298.444 172.085 313.121C173.224 327.797 174.302 339.962 174.482 340.155C175.153 340.873 253.704 365.709 255.524 365.779C256.566 365.818 275.306 360.195 297.168 353.281Z" fill="#A51D2D"/>
</svg>
