<svg width="69" height="105" viewBox="0 0 69 105" fill="none" xmlns="http://www.w3.org/2000/svg">
<path d="M5.90006 34.3678L3.00806 31.6078L5.90006 28.8598H7.28006L4.37606 31.6078L7.28006 34.3678H5.90006ZM13.6604 24.6958L10.3723 38.0398H9.29231L12.5684 24.6958H13.6604ZM15.4914 28.8598H16.8714L19.7754 31.6078L16.8714 34.3678H15.4914L18.3954 31.6078L15.4914 28.8598Z" fill="white"/>
<path d="M35.9001 11.3678L33.0081 8.6078L35.9001 5.8598H37.2801L34.3761 8.6078L37.2801 11.3678H35.9001ZM43.6604 1.6958L40.3723 15.0398H39.2923L42.5684 1.6958H43.6604ZM45.4914 5.8598H46.8714L49.7754 8.6078L46.8714 11.3678H45.4914L48.3954 8.6078L45.4914 5.8598Z" fill="white"/>
<path d="M53.9001 73.3678L51.0081 70.6078L53.9001 67.8598H55.2801L52.3761 70.6078L55.2801 73.3678H53.9001ZM61.6604 63.6958L58.3723 77.0398H57.2923L60.5684 63.6958H61.6604ZM63.4914 67.8598H64.8714L67.7754 70.6078L64.8714 73.3678H63.4914L66.3954 70.6078L63.4914 67.8598Z" fill="white"/>
<path d="M3.90006 98.3678L1.00806 95.6078L3.90006 92.8598H5.28006L2.37606 95.6078L5.28006 98.3678H3.90006ZM11.6604 88.6958L8.37231 102.04H7.29231L10.5684 88.6958H11.6604ZM13.4914 92.8598H14.8714L17.7754 95.6078L14.8714 98.3678H13.4914L16.3954 95.6078L13.4914 92.8598Z" fill="white"/>
</svg>
