<svg width="512" height="512" viewBox="0 0 512 512" fill="none" xmlns="http://www.w3.org/2000/svg">
<path d="M370.939 386.5C372.977 386.5 369.73 392.401 365.198 396.935C354.937 407.199 336.325 412.435 299.5 415.419C263.367 418.346 229.502 416.892 194.5 410.907C182.441 408.845 180.99 407.219 192.014 408.121C207.071 409.354 293.485 409.014 306.451 407.672C331.793 405.048 353.556 398.405 365.741 389.574C368.074 387.884 370.413 386.5 370.939 386.5Z" fill="#A51D2D"/>
<path d="M168.748 367.882C183.068 366.229 188.304 366.422 181 368.333C164.834 372.563 157 375.869 157 378.459C157.001 381.39 174.641 385.554 198 388.136C216.974 390.233 266.423 390.523 284.5 388.643C314.056 385.569 340.213 380.711 349.625 376.548C353.481 374.842 354 374.232 354 371.401C354 368.254 354.039 368.226 356 370C358.966 372.684 358.611 377.54 355.212 380.797C347.248 388.427 318.254 395.67 282.5 398.964C255.742 401.429 217.706 401.63 189 399.459C154.18 396.825 138 391.116 138 381.466C138 378.738 138.662 376.961 140.218 375.512C143.583 372.376 154.047 369.578 168.748 367.882Z" fill="#A51D2D"/>
<path d="M211.392 346.29C210.821 349.143 210.978 349.294 215.649 350.38C232.358 354.264 255.103 354.54 275 351.101L288.5 348.767L296.75 353.769C301.287 356.519 304.999 359.137 305 359.588C305 360.762 287.998 366.041 278 367.972C273.325 368.874 262.975 369.783 255 369.992C216.227 371.008 190.938 362.722 195.941 350.642C197.326 347.3 201.31 345.063 207.742 344.017L211.984 343.327L211.392 346.29Z" fill="#A51D2D"/>
<path d="M196.62 311.541C203.788 308.859 205.166 308.971 201.5 311.938C199.014 313.95 198.689 314.677 199.6 316.183C201.859 319.918 209.031 320.838 236.5 320.916C262.908 320.991 273.167 320.055 290.776 315.972L297.138 314.497L303.568 319.086C309.099 323.033 311.374 325.5 309.483 325.5C309.197 325.5 303.46 326.595 296.733 327.933C290.005 329.27 277.961 331.281 269.97 332.402C255.53 334.428 232.151 335.695 224.5 334.867C188.318 330.951 174.853 319.685 196.62 311.541Z" fill="#A51D2D"/>
<path d="M330.699 272.216C339.026 267.752 353.019 266.23 359.782 269.051C372.404 274.315 378.118 292.785 370.978 305.236C365.764 314.327 353.269 322.433 335.064 328.532C326.534 331.39 324 331.974 324 331.083C324 330.854 327.712 327.766 332.25 324.222C347.921 311.981 358 299.236 358 291.659C358 290.085 356.977 287.278 355.727 285.422C351.516 279.174 344.827 275.984 333 274.583L327.5 273.931L330.699 272.216Z" fill="#A51D2D"/>
<path d="M174.837 276.534C185.243 273.457 216.944 270.164 215.626 272.297C215.276 272.863 213.079 273.644 210.745 274.033C203.716 275.204 190.408 280.437 188.035 282.962C185.915 285.219 185.898 285.374 187.656 286.312C192.633 288.963 206.316 289.96 237.5 289.94C270.518 289.92 285.273 288.952 306.845 285.394C313.635 284.274 319.36 283.527 319.567 283.734C319.773 283.943 317.539 285.569 314.602 287.35C303.302 294.198 281.38 300.29 260.5 302.385C227.145 305.731 191.158 303.647 174.463 297.4C168.782 295.275 163 289.798 163 286.542C163 282.705 167.857 278.598 174.837 276.534Z" fill="#A51D2D"/>
<path d="M300.798 170.296C313.914 163.843 319.722 162.168 314.08 166.402L312.916 167.26C306.567 172.014 290.253 186.46 285.214 191.826C279.43 197.986 275.013 206.305 275.032 211C275.047 214.604 277.77 220.852 282.02 227.028C294.222 244.764 293.116 257.984 278.124 273.582C270.263 281.761 268.231 282.46 270.983 276.039C273.676 269.758 274.946 261.889 273.888 258.055C273.402 256.294 270.496 251.544 267.431 247.498C260.71 238.627 258.464 234.38 256.495 226.82C254.254 218.216 254.57 209.964 257.372 203.947C262.243 193.488 277.17 181.921 300.798 170.296Z" fill="#A51D2D"/>
<path d="M290.272 101.23C295.357 110.93 297.249 124.372 294.939 134.389C291.881 147.653 283.871 157.488 259.063 178.434C248.924 186.995 239.024 196.236 237.063 198.971C233.569 203.845 233.501 204.127 233.527 213.471C233.546 220.163 234.233 225.531 235.833 231.5C238.203 240.342 246.163 261.364 248.599 265.215C249.369 266.433 250 267.67 250 267.965C250 271.245 229.662 251.409 223.711 242.325C211.187 223.206 209.121 209.631 216.509 195C222.904 182.336 233.165 171.989 254.5 156.689C279.987 138.413 285.481 129.98 286.867 107L287.53 96L290.272 101.23Z" fill="#A51D2D"/>
</svg>
