<svg width="512" height="512" viewBox="0 0 512 512" fill="none" xmlns="http://www.w3.org/2000/svg">
<path d="M228.483 242.818H274.08V394.949C274.08 409.011 270.919 421.227 264.598 431.597C258.348 441.966 249.648 449.956 238.497 455.567C227.347 461.178 214.385 463.983 199.612 463.983C186.473 463.983 174.541 461.675 163.817 457.058C153.164 452.371 144.712 445.268 138.462 435.751C132.212 426.163 129.122 414.125 129.193 399.636H175.11C175.252 405.389 176.423 410.325 178.625 414.445C180.898 418.493 183.987 421.618 187.894 423.82C191.871 425.95 196.558 427.016 201.956 427.016C207.638 427.016 212.432 425.808 216.338 423.393C220.316 420.908 223.334 417.286 225.394 412.527C227.453 407.768 228.483 401.909 228.483 394.949V242.818ZM430.578 305.567C429.726 296.973 426.068 290.297 419.605 285.538C413.142 280.78 404.371 278.401 393.291 278.401C385.763 278.401 379.406 279.466 374.222 281.597C369.037 283.656 365.06 286.533 362.29 290.226C359.591 293.919 358.242 298.109 358.242 302.797C358.1 306.703 358.916 310.112 360.692 313.024C362.539 315.936 365.06 318.457 368.256 320.588C371.452 322.648 375.145 324.459 379.335 326.021C383.526 327.513 388 328.791 392.759 329.857L412.361 334.544C421.878 336.675 430.614 339.516 438.568 343.067C446.523 346.618 453.412 350.986 459.236 356.17C465.06 361.355 469.57 367.463 472.766 374.494C476.033 381.526 477.702 389.587 477.773 398.678C477.702 412.03 474.293 423.607 467.546 433.408C460.87 443.138 451.21 450.702 438.568 456.099C425.997 461.426 410.834 464.089 393.078 464.089C375.465 464.089 360.124 461.391 347.056 455.993C334.058 450.595 323.902 442.605 316.587 432.023C309.343 421.369 305.543 408.195 305.188 392.499H349.825C350.323 399.814 352.418 405.922 356.111 410.822C359.875 415.652 364.882 419.31 371.132 421.795C377.453 424.21 384.591 425.418 392.546 425.418C400.358 425.418 407.141 424.281 412.894 422.009C418.718 419.736 423.227 416.575 426.423 412.527C429.62 408.479 431.218 403.827 431.218 398.571C431.218 393.67 429.762 389.551 426.85 386.213C424.009 382.875 419.818 380.034 414.279 377.69C408.81 375.347 402.098 373.216 394.144 371.298L370.387 365.332C351.992 360.858 337.468 353.862 326.814 344.345C316.161 334.828 310.869 322.009 310.941 305.886C310.869 292.676 314.385 281.135 321.487 271.263C328.661 261.391 338.497 253.685 350.997 248.145C363.497 242.605 377.702 239.835 393.611 239.835C409.804 239.835 423.938 242.605 436.012 248.145C448.156 253.685 457.602 261.391 464.35 271.263C471.097 281.135 474.577 292.57 474.79 305.567H430.578Z" fill="#A51D2D"/>
</svg>
