<svg width="389" height="141" viewBox="0 0 389 141" fill="none" xmlns="http://www.w3.org/2000/svg">
<path d="M84.1812 0.374999H105.181V9.225H84.7812C76.7562 9.225 74.3562 13.05 74.3562 17.775V22.575H104.881V30.975H74.3562V51H65.5062V17.85C65.5062 7.725 70.7562 0.374999 84.1812 0.374999ZM130.763 0.374999H156.113V9.225H130.763C125.438 9.225 123.113 11.7 123.113 15.6C123.113 19.725 125.738 21.6 130.838 21.6H155.738V29.625H130.613C125.513 29.625 122.888 31.65 122.888 35.775C122.888 39.75 125.363 42.15 130.538 42.15H156.188V51H130.538C118.538 51 113.663 45.075 113.663 37.2C113.663 31.425 116.288 27.525 120.938 25.575C116.213 23.625 113.813 19.725 113.813 14.175C113.813 6.075 118.838 0.374999 130.763 0.374999ZM167.165 0.374999H176.015V33.45C176.015 38.325 178.415 42.15 186.365 42.15H206.015V51H185.84C172.415 51 167.165 43.65 167.165 33.525V0.374999ZM214.345 0.374999H223.195V51H214.345V0.374999ZM235.289 0.374999H261.239C272.639 0.374999 277.514 7.425 277.514 15.525C277.514 23.175 273.089 31.425 261.239 31.425H245.489C244.664 31.425 244.214 31.8 244.214 32.7V51H235.364V30.975C235.364 25.275 237.764 22.95 243.314 22.95H261.539C266.564 22.95 268.589 19.5 268.589 15.975C268.589 12.3 266.414 9.225 261.614 9.225H235.289V0.374999ZM301.417 0.374999H326.767V9.225H301.417C296.092 9.225 293.767 11.7 293.767 15.6C293.767 19.725 296.392 21.6 301.492 21.6H326.392V29.625H301.267C296.167 29.625 293.542 31.65 293.542 35.775C293.542 39.75 296.017 42.15 301.192 42.15H326.842V51H301.192C289.192 51 284.317 45.075 284.317 37.2C284.317 31.425 286.942 27.525 291.592 25.575C286.867 23.625 284.467 19.725 284.467 14.175C284.467 6.075 289.492 0.374999 301.417 0.374999ZM26.643 99.275L10.593 140H0.842969L18.618 95C20.493 90.275 23.943 88.475 29.268 88.475C34.518 88.475 37.968 90.275 39.768 95L56.868 140H47.043L31.668 99.275C31.218 98.075 30.393 97.55 29.193 97.55C27.993 97.55 27.168 98.075 26.643 99.275ZM73.1564 99.95V140H64.3064V99.5C64.3064 92.9 68.0564 88.475 75.9314 88.475C82.9814 88.475 86.1314 92.075 88.2314 97.85L103.006 130.175C103.606 131.375 104.581 132.275 106.231 132.275C108.106 132.275 109.231 131.15 109.231 129.425V89.375H118.156V129.8C118.156 136.475 114.331 140.9 106.531 140.9C99.4814 140.9 96.2564 137.3 94.1564 131.525L79.3814 99.2C78.7064 97.7 77.8064 97.025 76.2314 97.025C74.2064 97.025 73.1564 98.15 73.1564 99.95ZM126.324 89.375H164.799V98.225H150.024V140H141.099V98.225H126.324V89.375ZM172.771 89.375H181.771V123.2C181.771 128.225 184.321 131.15 190.171 131.15H199.171C204.871 131.15 207.496 128.225 207.496 123.2V89.375H216.196V123.875C216.196 134.525 210.571 140 199.771 140H189.121C178.321 140 172.771 134.525 172.771 123.875V89.375ZM236.853 99.95V140H228.003V99.5C228.003 92.9 231.753 88.475 239.628 88.475C246.678 88.475 249.828 92.075 251.928 97.85L266.703 130.175C267.303 131.375 268.278 132.275 269.928 132.275C271.803 132.275 272.928 131.15 272.928 129.425V89.375H281.853V129.8C281.853 136.475 278.028 140.9 270.228 140.9C263.178 140.9 259.953 137.3 257.853 131.525L243.078 99.2C242.403 97.7 241.503 97.025 239.928 97.025C237.903 97.025 236.853 98.15 236.853 99.95ZM309.071 89.375H334.421V98.225H309.071C303.746 98.225 301.421 100.7 301.421 104.6C301.421 108.725 304.046 110.6 309.146 110.6H334.046V118.625H308.921C303.821 118.625 301.196 120.65 301.196 124.775C301.196 128.75 303.671 131.15 308.846 131.15H334.496V140H308.846C296.846 140 291.971 134.075 291.971 126.2C291.971 120.425 294.596 116.525 299.246 114.575C294.521 112.625 292.121 108.725 292.121 103.175C292.121 95.075 297.146 89.375 309.071 89.375ZM359.423 89.375H385.073V98.225H359.123C354.548 98.225 352.523 100.7 352.523 104.225C352.523 107.3 354.098 110.225 360.023 110.225H371.873C385.673 110.225 388.898 117.875 388.898 125.15C388.898 133.7 384.323 140 372.773 140H344.573V131.15H373.073C377.873 131.15 380.048 128.525 380.048 124.85C380.048 121.55 378.323 118.55 372.098 118.55H360.323C346.823 118.55 343.673 110.975 343.673 103.925C343.673 95.525 348.173 89.375 359.423 89.375Z" fill="white"/>
</svg>
