<svg width="512" height="512" viewBox="0 0 512 512" fill="none" xmlns="http://www.w3.org/2000/svg">
<path d="M244.268 84.0923C243.53 84.1594 241.183 84.394 239.071 84.5616C190.353 88.9533 144.721 115.236 115.819 155.632C99.725 178.093 89.4317 203.572 85.5423 230.558C84.1676 239.978 84 242.761 84 255.534C84 268.306 84.1676 271.089 85.5423 280.509C94.8633 344.908 140.697 399.016 202.86 419.063C213.991 422.65 225.726 425.098 239.071 426.573C244.268 427.142 266.732 427.142 271.929 426.573C294.963 424.025 314.477 418.326 333.723 408.503C336.673 406.995 337.243 406.592 336.841 406.257C336.573 406.056 323.999 389.193 308.911 368.811L281.485 331.767L247.118 280.911C228.208 252.952 212.65 230.089 212.516 230.089C212.382 230.055 212.248 252.651 212.181 280.241C212.08 328.549 212.047 330.493 211.443 331.633C210.571 333.276 209.901 333.946 208.493 334.684C207.42 335.22 206.481 335.32 201.418 335.32H195.617L194.075 334.348C193.069 333.711 192.332 332.873 191.829 331.901L191.125 330.392L191.192 263.177L191.292 195.928L192.332 194.621C192.868 193.917 194.008 193.011 194.813 192.576C196.187 191.905 196.724 191.838 202.524 191.838C209.364 191.838 210.504 192.106 212.281 194.051C212.784 194.587 231.393 222.613 253.656 256.372C275.919 290.13 306.363 336.226 321.317 358.854L348.475 399.988L349.85 399.083C362.021 391.171 374.896 379.907 385.089 368.174C406.782 343.266 420.764 312.893 425.458 280.509C426.832 271.089 427 268.306 427 255.534C427 242.761 426.832 239.978 425.458 230.558C416.137 166.159 370.303 112.051 308.14 92.0039C297.176 88.4504 285.508 86.0032 272.432 84.5281C269.213 84.1929 247.051 83.8241 244.268 84.0923ZM314.477 187.815C316.087 188.62 317.394 190.162 317.864 191.771C318.132 192.643 318.199 211.282 318.132 253.287L318.031 313.563L307.403 297.271L296.74 280.978V237.162C296.74 208.835 296.875 192.911 297.076 192.14C297.612 190.263 298.786 188.787 300.395 187.916C301.77 187.212 302.273 187.145 307.537 187.145C312.499 187.145 313.371 187.212 314.477 187.815Z" fill="#A51D2D"/>
</svg>
