<svg width="512" height="512" viewBox="0 0 512 512" fill="none" xmlns="http://www.w3.org/2000/svg">
<path d="M256 221.227C274.804 221.227 290.044 236.57 290.045 255.5C290.045 274.43 274.804 289.773 256 289.773C237.196 289.773 221.955 274.43 221.955 255.5C221.956 236.57 237.196 221.227 256 221.227Z" fill="black"/>
<path fill-rule="evenodd" clip-rule="evenodd" d="M314.098 87.1066C327.262 82.8197 340.416 82.5435 351.5 88.9843C362.579 95.4262 368.912 107.029 371.807 120.645C374.701 134.267 374.407 150.849 371.515 169.025C370.395 176.061 368.849 183.408 366.941 191.003C374.435 193.138 381.522 195.481 388.14 198.024C405.224 204.591 419.632 212.627 429.905 221.962C440.173 231.295 446.999 242.617 447 255.5C446.999 268.383 440.174 279.705 429.905 289.038C419.633 298.373 405.224 306.392 388.14 312.959C381.522 315.503 374.434 317.844 366.941 319.98C368.851 327.581 370.394 334.934 371.515 341.974C374.407 360.151 374.701 376.733 371.807 390.355C368.912 403.972 362.579 415.574 351.5 422.016C340.416 428.457 327.262 428.18 314.098 423.893C300.931 419.605 286.833 411.045 272.641 399.434C267.144 394.936 261.585 389.926 256 384.461C250.419 389.924 244.87 394.937 239.375 399.434C225.186 411.043 211.067 419.588 197.902 423.877C184.738 428.163 171.584 428.457 160.5 422.016C149.417 415.573 143.087 403.96 140.193 390.339C137.3 376.717 137.609 360.15 140.501 341.974C141.622 334.934 143.134 327.581 145.043 319.98C137.555 317.846 130.473 315.501 123.86 312.959C106.776 306.392 92.3675 298.373 82.0953 289.038C71.8257 279.705 65.0012 268.383 65 255.5C65.0013 242.617 71.8266 231.295 82.0953 221.962C92.3676 212.627 106.776 204.591 123.86 198.024C130.474 195.483 137.554 193.137 145.043 191.003C143.136 183.409 141.621 176.061 140.501 169.025C137.609 150.85 137.3 134.283 140.193 120.661C143.087 107.04 149.417 95.4274 160.5 88.9843C171.584 82.5426 184.738 82.8365 197.902 87.1229C211.067 91.4119 225.186 99.9566 239.375 111.566C244.867 116.061 250.421 121.062 256 126.523C261.582 121.06 267.147 116.062 272.641 111.566C286.833 99.9551 300.931 91.3946 314.098 87.1066ZM350.835 324.079C335.12 327.661 317.996 330.361 299.89 332.047C289.388 346.99 278.501 360.566 267.564 372.476C272.808 377.609 277.997 382.291 283.103 386.469C296.373 397.327 308.674 404.559 319.207 407.99C329.739 411.419 337.599 410.8 343.196 407.549C348.79 404.297 353.238 397.752 355.555 386.861C357.87 375.963 357.806 361.619 355.101 344.62C354.06 338.08 352.629 331.216 350.835 324.079ZM161.149 324.079C159.356 331.214 157.924 338.082 156.883 344.62C154.179 361.614 154.115 375.948 156.429 386.845C158.744 397.741 163.209 404.279 168.804 407.532C174.4 410.785 182.248 411.4 192.777 407.973C203.308 404.543 215.612 397.325 228.881 386.469C233.985 382.293 239.178 377.607 244.419 372.476C233.481 360.567 222.597 346.988 212.094 332.047C193.988 330.36 176.863 327.661 161.149 324.079ZM233.747 333.565C241.09 343.322 248.55 352.316 255.984 360.458C263.421 352.314 270.891 343.325 278.237 333.565C270.938 333.9 263.518 334.088 256 334.088C248.477 334.088 241.051 333.901 233.747 333.565ZM256 193.632C244.087 193.632 232.466 194.075 221.242 194.922C214.907 204.277 208.719 214.18 202.768 224.558C196.814 234.939 191.398 245.296 186.516 255.5C191.398 265.704 196.814 276.061 202.768 286.442C208.717 296.815 214.909 306.709 221.242 316.062C232.466 316.908 244.087 317.368 256 317.368C267.902 317.368 279.511 316.907 290.726 316.062C297.062 306.705 303.263 296.805 309.216 286.426C315.166 276.05 320.572 265.699 325.452 255.5C320.572 245.301 315.166 234.95 309.216 224.574C303.261 214.191 297.065 204.282 290.726 194.922C279.512 194.077 267.901 193.632 256 193.632ZM334.259 275.127C330.896 281.659 327.362 288.231 323.603 294.786C319.844 301.339 315.959 307.711 312.022 313.906C324.087 312.383 335.555 310.389 346.277 307.979C342.988 297.421 338.984 286.413 334.259 275.127ZM177.725 275.143C173.002 286.426 168.978 297.424 165.69 307.979C176.417 310.391 187.891 312.381 199.962 313.906C196.028 307.715 192.153 301.35 188.397 294.802C184.638 288.247 181.087 281.675 177.725 275.143ZM149.568 207.087C142.536 209.09 135.923 211.29 129.78 213.651C113.805 219.791 101.439 226.904 93.2218 234.371C85.008 241.837 81.61 248.996 81.6087 255.5C81.6098 262.005 85.0068 269.162 93.2218 276.629C101.439 284.096 113.805 291.208 129.78 297.349C135.921 299.71 142.538 301.894 149.568 303.897C154.343 288.408 160.572 272.126 168.172 255.5C160.569 238.869 154.343 222.58 149.568 207.087ZM362.432 207.087C357.653 222.583 351.403 238.866 343.796 255.5C351.4 272.127 357.638 288.407 362.416 303.897C369.451 301.892 376.074 299.711 382.22 297.349C398.195 291.208 410.561 284.096 418.778 276.629C426.993 269.162 430.39 262.005 430.391 255.5C430.39 248.996 426.992 241.837 418.778 234.371C410.561 226.904 398.195 219.791 382.22 213.651C376.077 211.29 369.464 209.09 362.432 207.087ZM312.022 197.077C315.961 203.277 319.842 209.657 323.603 216.214C327.359 222.765 330.898 229.329 334.259 235.857C338.983 224.57 342.989 213.563 346.277 203.005C335.556 200.595 324.087 198.601 312.022 197.077ZM199.962 197.077C187.891 198.602 176.416 200.593 165.69 203.005C168.977 213.56 173.003 224.557 177.725 235.841C181.085 229.313 184.641 222.748 188.397 216.198C192.155 209.646 196.025 203.272 199.962 197.077ZM343.196 103.451C337.599 100.2 329.738 99.5807 319.207 103.01C308.674 106.441 296.373 113.673 283.103 124.531C278 128.706 272.805 133.378 267.564 138.508C278.501 150.417 289.388 163.995 299.89 178.937C317.994 180.62 335.121 183.31 350.835 186.889C352.625 179.763 354.061 172.91 355.101 166.38C357.806 149.381 357.87 135.037 355.555 124.139C353.238 113.249 348.79 106.703 343.196 103.451ZM192.777 103.027C182.248 99.5998 174.4 100.215 168.804 103.467C163.209 106.721 158.744 113.259 156.429 124.155C154.115 135.052 154.179 149.386 156.883 166.38C157.922 172.908 159.344 179.766 161.133 186.889C176.85 183.307 193.984 180.622 212.094 178.937C222.597 163.996 233.481 150.416 244.419 138.508C239.181 133.38 233.982 128.705 228.881 124.531C215.612 113.675 203.308 106.456 192.777 103.027ZM255.984 150.526C248.547 158.67 241.093 167.675 233.747 177.435C241.051 177.1 248.477 176.912 256 176.912C263.517 176.912 270.938 177.1 278.237 177.435C270.888 167.671 263.423 158.672 255.984 150.526Z" fill="black"/>
</svg>
