<svg width="512" height="512" viewBox="0 0 512 512" fill="none" xmlns="http://www.w3.org/2000/svg">
<path d="M104.667 280.851V242.818H283.857V280.851H217.061V461H171.464V280.851H104.667ZM431.727 305.567C430.874 296.973 427.217 290.297 420.754 285.538C414.291 280.78 405.519 278.401 394.44 278.401C386.911 278.401 380.555 279.466 375.37 281.597C370.186 283.656 366.208 286.533 363.438 290.226C360.74 293.919 359.39 298.109 359.39 302.797C359.248 306.703 360.065 310.112 361.84 313.024C363.687 315.936 366.208 318.457 369.404 320.588C372.6 322.648 376.294 324.459 380.484 326.021C384.674 327.513 389.149 328.791 393.907 329.857L413.509 334.544C423.026 336.675 431.762 339.516 439.717 343.067C447.671 346.618 454.561 350.986 460.384 356.17C466.208 361.355 470.718 367.463 473.914 374.494C477.181 381.526 478.85 389.587 478.921 398.678C478.85 412.03 475.441 423.607 468.694 433.408C462.018 443.138 452.359 450.702 439.717 456.099C427.146 461.426 411.982 464.089 394.227 464.089C376.613 464.089 361.272 461.391 348.204 455.993C335.207 450.595 325.051 442.605 317.735 432.023C310.491 421.369 306.691 408.195 306.336 392.499H350.974C351.471 399.814 353.566 405.922 357.259 410.822C361.024 415.652 366.031 419.31 372.281 421.795C378.602 424.21 385.74 425.418 393.694 425.418C401.507 425.418 408.289 424.281 414.042 422.009C419.866 419.736 424.376 416.575 427.572 412.527C430.768 408.479 432.366 403.827 432.366 398.571C432.366 393.67 430.91 389.551 427.998 386.213C425.157 382.875 420.967 380.034 415.427 377.69C409.958 375.347 403.247 373.216 395.292 371.298L371.535 365.332C353.14 360.858 338.616 353.862 327.963 344.345C317.309 334.828 312.018 322.009 312.089 305.886C312.018 292.676 315.534 281.135 322.636 271.263C329.809 261.391 339.646 253.685 352.146 248.145C364.646 242.605 378.85 239.835 394.759 239.835C410.953 239.835 425.086 242.605 437.16 248.145C449.305 253.685 458.751 261.391 465.498 271.263C472.245 281.135 475.725 292.57 475.938 305.567H431.727Z" fill="#A51D2D"/>
</svg>
